<svg id="ART" xmlns="http://www.w3.org/2000/svg" viewBox="0 0 1000 600"><defs><style>.cls-1{fill:#e0cb26;}.cls-2{fill:#a39634;}.cls-3{fill:#fff;}.cls-4{fill:#103c68;}</style></defs><title>Logo Mark (Shield) on White</title><path class="cls-1" d="M356.88,345.31v-39H199.49c22.73,38,69.94,38.76,69.7,38.76C264,345.08,300.85,345.19,356.88,345.31Z"/><path class="cls-1" d="M356.88,242.9h-228c12.91,30.22,48.17,48.32,64.31,48.32H356.88Z"/><path class="cls-1" d="M356.88,154.45H54.08a4.33,4.33,0,0,0-4,5.27c7.35,35.19,52.09,68.08,73.23,68.08H356.88Z"/><path class="cls-1" d="M643.12,345.31v-39H800.51c-22.73,38-69.94,38.76-69.7,38.76C736,345.08,699.15,345.19,643.12,345.31Z"/><path class="cls-1" d="M643.12,242.9h228c-12.91,30.22-48.17,48.32-64.31,48.32H643.12Z"/><path class="cls-1" d="M643.12,154.45h302.8a4.33,4.33,0,0,1,4,5.27c-7.35,35.19-52.09,68.08-73.23,68.08H643.12Z"/><path class="cls-2" d="M204.72,160.56C208.78,287.85,339.42,390,500,390S791.35,287.73,795.27,160.34c.23-3.28-1.65-5.89-4.47-5.89H210.07C205.72,154.45,204.6,157.55,204.72,160.56Z"/><path class="cls-3" d="M630,86H370A13.71,13.71,0,0,0,356.29,99.7V353.39c0,5.87,1.41,7.55,3,10.07,11.46,18.09,69.56,92,101.41,121.57C465.62,489.6,487.75,514,500,514S534.38,489.6,539.3,485c31.85-29.62,90-103.48,101.41-121.57,1.59-2.52,3-4.2,3-10.07V99.7A13.71,13.71,0,0,0,630,86Z"/><path class="cls-4" d="M630,86H370A13.71,13.71,0,0,0,356.29,99.7V353.39c0,5.87,1.41,7.55,3,10.07,6.8,10.74,30,41.14,54.48,70.27V223.21h57.49V495.43C480.11,503.85,492.11,514,500,514s19.89-10.12,28.74-18.54V223.21h57.49V433.73c24.43-29.13,47.67-59.53,54.48-70.27,1.59-2.52,3-4.2,3-10.07V99.7A13.71,13.71,0,0,0,630,86ZM425.73,172.82,410,164.17l-15.78,8.65,3.36-17.67-13.1-12.33,17.84-2.27L410,124.28l7.67,16.27,17.85,2.27-13.11,12.33ZM519,162.52l5.12,27L500,176.3l-24.09,13.22,5.12-27-20-18.83,27.27-3.47L500,115.37l11.72,24.85L539,143.69Zm86.85,10.3L590,164.17l-15.77,8.65,3.36-17.67-13.11-12.33,17.85-2.27L590,124.28l7.68,16.27,17.84,2.27-13.1,12.33Z"/></svg>